<svg version="1.1" id="Layer_1" xmlns="http://www.w3.org/2000/svg" x="0" y="0" viewBox="0 0 256 256" style="enable-background:new 0 0 256 256" xml:space="preserve"><style>.st0{fill:#382b73}.st2{fill:#d1d3d4}.st3{fill:#ef5a9d}.st4{fill:#fff}.st5{fill:#bcbec0}.st7{fill:#fede3a}.st9{fill:#e6e7e8}.st10{fill:#f7cb15}.st12{fill:#009add}.st13{fill:#fff335}</style><switch><g><circle class="st0" cx="128" cy="128" r="119.4"/><circle cx="128" cy="128" r="103.299" style="fill:#473080"/><path class="st0" d="M64.833 166.917h126.333a6 6 0 0 0 6-6v-79a6 6 0 0 0-6-6H64.833a6 6 0 0 0-6 6v79a6 6 0 0 0 6 6zM208.236 180.488c.253-.261.486-.541.702-.835.033-.044.067-.087.099-.132.215-.304.408-.624.579-.958.026-.051.049-.103.075-.155a7.948 7.948 0 0 0 .81-3.49 8 8 0 0 0-8-8h-149a8 8 0 0 0-8 8c0 1.253.296 2.434.81 3.49.025.051.048.103.074.154.171.334.364.654.579.959.032.045.065.087.098.131.217.294.449.575.703.837l.041.045a8.063 8.063 0 0 0 1.012.861c.299.216.609.416.937.59.038.02.079.037.118.057.308.157.627.293.956.409.06.021.118.045.178.065.351.115.713.204 1.083.27.078.014.156.024.234.036a8.01 8.01 0 0 0 1.177.096h149a8.01 8.01 0 0 0 1.177-.096c.078-.012.156-.022.234-.036.37-.066.732-.155 1.083-.27.061-.02.118-.044.178-.065.329-.117.648-.252.955-.409.039-.02.08-.036.118-.057a8.004 8.004 0 0 0 1.108-.718c.296-.227.579-.468.84-.733.015-.014.028-.031.042-.046z"/><g><path class="st2" d="M191.167 159.917H64.833a6 6 0 0 1-6-6v-79a6 6 0 0 1 6-6h126.333a6 6 0 0 1 6 6v79a6 6 0 0 1-5.999 6z"/><path class="st3" d="M187.667 155H68.333a4 4 0 0 1-4-4V77.833a4 4 0 0 1 4-4h119.333a4 4 0 0 1 4 4V151c.001 2.209-1.79 4-3.999 4z"/><path class="st4" d="M202.5 175.919h-149a8 8 0 0 1 0-16h149a8 8 0 0 1 0 16z"/><path class="st2" d="M202.5 164.752h-55.298c-1.201 0-2.278.624-3.01 1.575a5.976 5.976 0 0 1-4.747 2.339h-22.89a5.979 5.979 0 0 1-4.747-2.339c-.733-.951-1.81-1.575-3.01-1.575H53.5a8.003 8.003 0 0 0-7.627 5.583 8.002 8.002 0 0 0 7.627 5.583h149a8 8 0 0 0 7.626-5.583 8 8 0 0 0-7.626-5.583z"/><path class="st5" d="M68.719 173.376c-1.498 0-2.407-1.653-1.604-2.918l1.767-2.784a1.901 1.901 0 0 1 1.604-.882c1.498 0 2.407 1.653 1.604 2.918l-1.767 2.784c-.348.55-.954.882-1.604.882zM76.386 173.376c-1.498 0-2.407-1.653-1.604-2.918l1.767-2.784a1.899 1.899 0 0 1 1.604-.882c1.498 0 2.407 1.653 1.604 2.918l-1.767 2.784c-.349.55-.954.882-1.604.882zM84.053 173.376c-1.498 0-2.407-1.653-1.604-2.918l1.767-2.784a1.899 1.899 0 0 1 1.604-.882c1.498 0 2.407 1.653 1.604 2.918l-1.767 2.784c-.349.55-.954.882-1.604.882zM91.719 173.376c-1.498 0-2.407-1.653-1.604-2.918l1.767-2.784a1.901 1.901 0 0 1 1.604-.882c1.498 0 2.407 1.653 1.604 2.918l-1.767 2.784c-.348.55-.954.882-1.604.882z"/><g><path class="st5" d="M187.281 173.376c1.498 0 2.407-1.653 1.604-2.918l-1.767-2.784a1.9 1.9 0 0 0-1.604-.882c-1.498 0-2.406 1.653-1.604 2.918l1.767 2.784c.348.55.953.882 1.604.882zM179.614 173.376c1.498 0 2.407-1.653 1.604-2.918l-1.767-2.784a1.901 1.901 0 0 0-1.604-.882c-1.498 0-2.407 1.653-1.604 2.918l1.767 2.784c.349.55.954.882 1.604.882zM171.947 173.376c1.498 0 2.407-1.653 1.604-2.918l-1.767-2.784a1.9 1.9 0 0 0-1.604-.882c-1.498 0-2.407 1.653-1.604 2.918l1.767 2.784c.349.55.954.882 1.604.882zM164.281 173.376c1.498 0 2.407-1.653 1.604-2.918l-1.767-2.784a1.9 1.9 0 0 0-1.604-.882c-1.498 0-2.406 1.653-1.604 2.918l1.767 2.784c.348.55.953.882 1.604.882z"/></g><g><path class="st4" d="M187.667 73.833H68.333a4 4 0 0 0-4 4V89.5h127.333V77.833c.001-2.209-1.79-4-3.999-4z"/><path class="st3" d="M96.965 84.667H75.484a3 3 0 1 1 0-6h21.481a3 3 0 1 1 0 6zM183.328 84.667a3 3 0 1 1 0-6 3 3 0 1 1 0 6z"/><path d="M123.125 155H69.471a5.138 5.138 0 0 1-5.138-5.138V89.5h58.792V155z" style="fill:#e43d91"/><g><path class="st7" d="M150.25 141.063h-16.5a3 3 0 1 0 0 6h16.5a3 3 0 1 0 0-6zM177.75 141.063h-16.5a3 3 0 1 0 0 6h16.5a3 3 0 1 0 0-6z"/><path class="st4" d="M146.385 103.878H133.75a3 3 0 1 1 0-6h12.635a3 3 0 0 1 0 6zM152.965 115.578H133.75a3 3 0 1 1 0-6h19.215a3 3 0 1 1 0 6zM146.385 131.32H133.75a3 3 0 1 1 0-6h12.635a3 3 0 1 1 0 6zM176.875 131.32h-21.712a3 3 0 1 1 0-6h21.712a3 3 0 1 1 0 6zM170.632 103.878h-3.755a3 3 0 1 1 0-6h3.755a3 3 0 0 1 0 6zM173.601 115.578h-6.723a3 3 0 1 1 0-6h6.723a3 3 0 1 1 0 6z"/></g><path d="M113.879 102.604h-7.946V99.02a2.15 2.15 0 1 0-4.3 0v3.584H85.74V99.02a2.139 2.139 0 0 0-.948-1.783 2.142 2.142 0 0 0-1.202-.367 2.15 2.15 0 0 0-2.15 2.15v3.584h-7.946a2.244 2.244 0 0 0-2.244 2.244V149.721a2.244 2.244 0 0 0 2.244 2.244h40.385a2.244 2.244 0 0 0 2.244-2.244v-44.873a2.244 2.244 0 0 0-2.244-2.244z" style="fill:#a72973"/><g><path class="st5" d="M113.879 148.963H73.494a2.244 2.244 0 0 1-2.244-2.244v-40.385a2.244 2.244 0 0 1 2.244-2.244h40.385a2.244 2.244 0 0 1 2.244 2.244v40.385a2.244 2.244 0 0 1-2.244 2.244z"/><path class="st2" d="M113.879 147.468H73.494a2.244 2.244 0 0 1-2.244-2.244v-40.385a2.244 2.244 0 0 1 2.244-2.244h40.385a2.244 2.244 0 0 1 2.244 2.244v40.385a2.245 2.245 0 0 1-2.244 2.244z"/><path class="st9" d="M113.879 145.972H73.494a2.244 2.244 0 0 1-2.244-2.244v-40.385a2.244 2.244 0 0 1 2.244-2.244h40.385a2.244 2.244 0 0 1 2.244 2.244v40.385a2.245 2.245 0 0 1-2.244 2.244z"/><path class="st4" d="M113.879 144.476H73.494a2.244 2.244 0 0 1-2.244-2.244v-40.385a2.244 2.244 0 0 1 2.244-2.244h40.385a2.244 2.244 0 0 1 2.244 2.244v40.385a2.244 2.244 0 0 1-2.244 2.244z"/><path class="st9" d="M79.219 119.835h-3.515c-.826 0-1.496-.67-1.496-1.496v-3.515c0-.826.67-1.496 1.496-1.496h3.515c.826 0 1.496.67 1.496 1.496v3.515c0 .826-.67 1.496-1.496 1.496zM90.035 119.835H86.52c-.826 0-1.496-.67-1.496-1.496v-3.515c0-.826.67-1.496 1.496-1.496h3.515c.826 0 1.496.67 1.496 1.496v3.515c0 .826-.669 1.496-1.496 1.496zM100.852 119.835h-3.515c-.826 0-1.496-.67-1.496-1.496v-3.515c0-.826.67-1.496 1.496-1.496h3.515c.826 0 1.496.67 1.496 1.496v3.515c0 .826-.67 1.496-1.496 1.496zM111.669 119.835h-3.515c-.826 0-1.496-.67-1.496-1.496v-3.515c0-.826.67-1.496 1.496-1.496h3.515c.826 0 1.496.67 1.496 1.496v3.515a1.497 1.497 0 0 1-1.496 1.496z"/><g><path class="st9" d="M79.219 130.651h-3.515c-.826 0-1.496-.67-1.496-1.496v-3.515c0-.826.67-1.496 1.496-1.496h3.515c.826 0 1.496.67 1.496 1.496v3.515c0 .826-.67 1.496-1.496 1.496z"/><path class="st7" d="M90.035 130.651H86.52c-.826 0-1.496-.67-1.496-1.496v-3.515c0-.826.67-1.496 1.496-1.496h3.515c.826 0 1.496.67 1.496 1.496v3.515c0 .826-.669 1.496-1.496 1.496z"/><path class="st10" d="M90.035 129.903H86.52c-.826 0-1.496-.67-1.496-1.496v.748c0 .826.67 1.496 1.496 1.496h3.515c.826 0 1.496-.67 1.496-1.496v-.748c0 .827-.669 1.496-1.496 1.496z"/><path class="st7" d="M100.852 130.651h-3.515c-.826 0-1.496-.67-1.496-1.496v-3.515c0-.826.67-1.496 1.496-1.496h3.515c.826 0 1.496.67 1.496 1.496v3.515c0 .826-.67 1.496-1.496 1.496zM111.669 130.651h-3.515c-.826 0-1.496-.67-1.496-1.496v-3.515c0-.826.67-1.496 1.496-1.496h3.515c.826 0 1.496.67 1.496 1.496v3.515a1.497 1.497 0 0 1-1.496 1.496z"/><path class="st10" d="M100.852 129.903h-3.515c-.826 0-1.496-.67-1.496-1.496v.748c0 .826.67 1.496 1.496 1.496h3.515c.826 0 1.496-.67 1.496-1.496v-.748c0 .827-.67 1.496-1.496 1.496zM111.669 129.903h-3.515c-.826 0-1.496-.67-1.496-1.496v.748c0 .826.67 1.496 1.496 1.496h3.515c.826 0 1.496-.67 1.496-1.496v-.748a1.496 1.496 0 0 1-1.496 1.496z"/></g><g><path class="st7" d="M79.219 141.468h-3.515c-.826 0-1.496-.67-1.496-1.496v-3.515c0-.826.67-1.496 1.496-1.496h3.515c.826 0 1.496.67 1.496 1.496v3.515c0 .826-.67 1.496-1.496 1.496z"/><path class="st10" d="M79.219 140.72h-3.515c-.826 0-1.496-.67-1.496-1.496v.748c0 .826.67 1.496 1.496 1.496h3.515c.826 0 1.496-.67 1.496-1.496v-.748c0 .826-.67 1.496-1.496 1.496z"/><path class="st7" d="M90.035 141.468H86.52c-.826 0-1.496-.67-1.496-1.496v-3.515c0-.826.67-1.496 1.496-1.496h3.515c.826 0 1.496.67 1.496 1.496v3.515c0 .826-.669 1.496-1.496 1.496z"/><path class="st10" d="M90.035 140.72H86.52c-.826 0-1.496-.67-1.496-1.496v.748c0 .826.67 1.496 1.496 1.496h3.515c.826 0 1.496-.67 1.496-1.496v-.748c0 .826-.669 1.496-1.496 1.496z"/><path class="st9" d="M100.852 141.468h-3.515c-.826 0-1.496-.67-1.496-1.496v-3.515c0-.826.67-1.496 1.496-1.496h3.515c.826 0 1.496.67 1.496 1.496v3.515c0 .826-.67 1.496-1.496 1.496zM111.669 141.468h-3.515c-.826 0-1.496-.67-1.496-1.496v-3.515c0-.826.67-1.496 1.496-1.496h3.515c.826 0 1.496.67 1.496 1.496v3.515a1.497 1.497 0 0 1-1.496 1.496z"/></g><path d="M113.879 99.604H73.494a2.244 2.244 0 0 0-2.244 2.244v8.289h44.872v-8.289a2.243 2.243 0 0 0-2.243-2.244z" style="fill:#1caee4"/><g><path class="st12" d="M83.59 106.833a2.15 2.15 0 0 1-2.15-2.15v-7.167a2.15 2.15 0 1 1 4.3 0v7.167a2.15 2.15 0 0 1-2.15 2.15zM103.782 106.833a2.15 2.15 0 0 1-2.15-2.15v-7.167a2.15 2.15 0 1 1 4.3 0v7.167a2.149 2.149 0 0 1-2.15 2.15z"/><path class="st7" d="M83.59 105.337a2.15 2.15 0 0 1-2.15-2.15V96.02a2.15 2.15 0 1 1 4.3 0v7.167a2.15 2.15 0 0 1-2.15 2.15z"/><path class="st13" d="M83.59 93.87a2.15 2.15 0 0 0-2.15 2.15v3.739a2.15 2.15 0 1 1 4.3 0V96.02a2.15 2.15 0 0 0-2.15-2.15z"/><path class="st10" d="M83.59 103.468a2.15 2.15 0 0 1-2.15-2.15v1.87a2.15 2.15 0 1 0 4.3 0v-1.87a2.15 2.15 0 0 1-2.15 2.15z"/><path class="st7" d="M103.782 105.337a2.15 2.15 0 0 1-2.15-2.15V96.02a2.15 2.15 0 1 1 4.3 0v7.167a2.149 2.149 0 0 1-2.15 2.15z"/><path class="st13" d="M103.782 93.87a2.15 2.15 0 0 0-2.15 2.15v3.739a2.15 2.15 0 1 1 4.3 0V96.02a2.15 2.15 0 0 0-2.15-2.15z"/><path class="st10" d="M103.782 103.468a2.15 2.15 0 0 1-2.15-2.15v1.87a2.15 2.15 0 1 0 4.3 0v-1.87a2.15 2.15 0 0 1-2.15 2.15z"/></g><path class="st12" d="M71.25 108.251h44.872v1.885H71.25z"/></g></g></g></g></switch></svg>